<?xml version="1.0" encoding="UTF-8" standalone="no"?>
<!-- Created with Inkscape (http://www.inkscape.org/) -->

<svg
   width="64pt"
   height="64pt"
   viewBox="0 0 22.577778 22.577778"
   version="1.1"
   id="svg831"
   inkscape:version="1.1.1 (3bf5ae0d25, 2021-09-20)"
   sodipodi:docname="Ex.svg"
   inkscape:export-filename="C:\Users\User\Desktop\CARLOS PROJECT\4. APRIL 1\Done\4 - Chili.png"
   inkscape:export-xdpi="576"
   inkscape:export-ydpi="576"
   xmlns:inkscape="http://www.inkscape.org/namespaces/inkscape"
   xmlns:sodipodi="http://sodipodi.sourceforge.net/DTD/sodipodi-0.dtd"
   xmlns="http://www.w3.org/2000/svg"
   xmlns:svg="http://www.w3.org/2000/svg"
   xmlns:rdf="http://www.w3.org/1999/02/22-rdf-syntax-ns#"
   xmlns:cc="http://creativecommons.org/ns#"
   xmlns:dc="http://purl.org/dc/elements/1.1/">
  <defs
     id="defs825">
    <pattern
       id="EMFhbasepattern"
       patternUnits="userSpaceOnUse"
       width="6"
       height="6"
       x="0"
       y="0" />
    <pattern
       id="EMFhbasepattern-9"
       patternUnits="userSpaceOnUse"
       width="6"
       height="6"
       x="0"
       y="0" />
    <pattern
       id="EMFhbasepattern-0"
       patternUnits="userSpaceOnUse"
       width="6"
       height="6"
       x="0"
       y="0" />
    <pattern
       id="EMFhbasepattern-7"
       patternUnits="userSpaceOnUse"
       width="6"
       height="6"
       x="0"
       y="0" />
    <pattern
       id="EMFhbasepattern-2"
       patternUnits="userSpaceOnUse"
       width="6"
       height="6"
       x="0"
       y="0" />
    <pattern
       id="EMFhbasepattern-98"
       patternUnits="userSpaceOnUse"
       width="6"
       height="6"
       x="0"
       y="0" />
    <pattern
       id="EMFhbasepattern-6"
       patternUnits="userSpaceOnUse"
       width="6"
       height="6"
       x="0"
       y="0" />
    <pattern
       id="EMFhbasepattern-01"
       patternUnits="userSpaceOnUse"
       width="6"
       height="6"
       x="0"
       y="0" />
    <pattern
       id="EMFhbasepattern-07"
       patternUnits="userSpaceOnUse"
       width="6"
       height="6"
       x="0"
       y="0" />
    <pattern
       id="EMFhbasepattern-8"
       patternUnits="userSpaceOnUse"
       width="6"
       height="6"
       x="0"
       y="0" />
    <pattern
       id="EMFhbasepattern-4"
       patternUnits="userSpaceOnUse"
       width="6"
       height="6"
       x="0"
       y="0" />
    <pattern
       id="EMFhbasepattern-40"
       patternUnits="userSpaceOnUse"
       width="6"
       height="6"
       x="0"
       y="0" />
    <pattern
       id="EMFhbasepattern-08"
       patternUnits="userSpaceOnUse"
       width="6"
       height="6"
       x="0"
       y="0" />
    <pattern
       id="EMFhbasepattern-04"
       patternUnits="userSpaceOnUse"
       width="6"
       height="6"
       x="0"
       y="0" />
    <pattern
       id="EMFhbasepattern-014"
       patternUnits="userSpaceOnUse"
       width="6"
       height="6"
       x="0"
       y="0" />
    <pattern
       id="EMFhbasepattern-27"
       patternUnits="userSpaceOnUse"
       width="6"
       height="6"
       x="0"
       y="0" />
    <pattern
       id="EMFhbasepattern-09"
       patternUnits="userSpaceOnUse"
       width="6"
       height="6"
       x="0"
       y="0" />
    <pattern
       id="EMFhbasepattern-5"
       patternUnits="userSpaceOnUse"
       width="6"
       height="6"
       x="0"
       y="0" />
    <pattern
       id="EMFhbasepattern-018"
       patternUnits="userSpaceOnUse"
       width="6"
       height="6"
       x="0"
       y="0" />
  </defs>
  <sodipodi:namedview
     id="base"
     pagecolor="#ffffff"
     bordercolor="#666666"
     borderopacity="1.0"
     inkscape:pageopacity="0.0"
     inkscape:pageshadow="2"
     inkscape:zoom="6.4882571"
     inkscape:cx="31.749667"
     inkscape:cy="42.615451"
     inkscape:document-units="pt"
     inkscape:current-layer="layer1"
     showgrid="false"
     units="pt"
     inkscape:window-width="1920"
     inkscape:window-height="1001"
     inkscape:window-x="-9"
     inkscape:window-y="-9"
     inkscape:window-maximized="1"
     inkscape:pagecheckerboard="true"
     inkscape:showpageshadow="false"
     inkscape:object-paths="true"
     inkscape:snap-intersection-paths="true"
     inkscape:snap-smooth-nodes="true"
     inkscape:snap-midpoints="true"
     showguides="true"
     inkscape:snap-bbox="true"
     inkscape:bbox-nodes="true"
     inkscape:snap-nodes="false"
     inkscape:snap-global="true"
     inkscape:lockguides="true">
    <inkscape:grid
       type="xygrid"
       id="grid1378" />
    <sodipodi:guide
       position="0.97013831,21.607643"
       orientation="78.000048,0"
       id="guide1380"
       inkscape:locked="true" />
    <sodipodi:guide
       position="0.97013831,0.97013129"
       orientation="0,78.000005"
       id="guide1382"
       inkscape:locked="true" />
    <sodipodi:guide
       position="21.607639,0.97013129"
       orientation="-78.000048,0"
       id="guide1384"
       inkscape:locked="true" />
    <sodipodi:guide
       position="21.607639,21.607643"
       orientation="0,-78.000005"
       id="guide1386"
       inkscape:locked="true" />
  </sodipodi:namedview>
  <metadata
     id="metadata828">
    <rdf:RDF>
      <cc:Work
         rdf:about="">
        <dc:format>image/svg+xml</dc:format>
        <dc:type
           rdf:resource="http://purl.org/dc/dcmitype/StillImage" />
      </cc:Work>
    </rdf:RDF>
  </metadata>
  <g
     inkscape:label="Icon"
     inkscape:groupmode="layer"
     id="layer1"
     transform="translate(0,-274.42223)">
    <g
       id="g23816"
       style="display:inline;stroke-width:0.7987"
       transform="matrix(1.2520349,0,0,1.2520349,-75.694058,-37.351892)">
      <path
         style="color:#000000;fill:#c8dae5;fill-opacity:1;stroke-width:3.01871;stroke-linecap:round;stroke-linejoin:round;-inkscape-stroke:none"
         d="m 254.41021,-88.451173 c -0.90334,3.619918 -5.06218,6.4044 -9.4043,8.216797 -4.34213,1.812397 -8.71852,2.668188 -9.58984,2.826172 -0.0223,0.0057 -0.0445,0.01226 -0.0664,0.01953 -0.52166,0.03676 -0.9269,0.469244 -0.92969,0.992188 v 5.847656 c -4.6e-4,0.0457 0.002,0.09138 0.008,0.136719 -0.007,0.340501 0.15886,0.661397 0.44141,0.851562 2.04643,1.364296 5.37631,2.164712 8.98438,2.199219 3.60806,0.03402 7.48583,-0.742037 10.4082,-2.945313 0.005,-0.0026 0.0104,-0.0052 0.0156,-0.0078 0.92942,-0.721852 1.46827,-1.9005 2.02149,-3.410156 0.55322,-1.509695 1.01915,-3.337065 1.30664,-5.232422 0.28751,-1.895358 0.39848,-3.855878 0.2207,-5.619141 -0.17775,-1.763263 -1.02795,-3.009861 -1.66797,-4.49414 -0.86441,-0.579689 -1.33632,-0.224178 -1.74822,0.619129 z"
         transform="matrix(0.26458334,0,0,0.26458334,0,280.06666)"
         id="path159256"
         sodipodi:nodetypes="cscccccccccssccc" />
      <path
         id="path37688"
         style="fill:#a3b9c9;fill-opacity:1;stroke-width:3.01871;stroke-linecap:round;stroke-linejoin:round"
         d="m 256.82617,-87.83678 c -3.44298,3.632961 -6.38086,8.469833 -6.38086,15.662952 0,1.296529 0.2053,2.509614 0.58008,3.628906 1.1557,-0.442044 2.25092,-1.018782 3.23633,-1.761719 0.005,-0.0026 0.0104,-0.0052 0.0156,-0.0078 0.92942,-0.721852 1.46827,-1.9005 2.02149,-3.410156 0.55322,-1.509695 1.01915,-3.337065 1.30664,-5.232422 0.28751,-1.895358 0.39848,-3.855878 0.2207,-5.619141 -0.12624,-1.252272 -0.99998,-3.26062 -0.99998,-3.26062 z"
         transform="matrix(0.26458334,0,0,0.26458334,0,280.06666)"
         sodipodi:nodetypes="sscccssss" />
      <path
         style="color:#000000;fill:#e2f0fa;fill-opacity:1;stroke-width:0.7987;stroke-linecap:round;stroke-linejoin:round;-inkscape-stroke:none"
         d="m 72.291016,263.88086 c 1.441099,0 2.75508,-0.12787 3.75,-0.55078 0.99492,-0.42291 1.673828,-1.2048 1.673828,-2.35938 0,-2.33703 -1.219602,-3.448 -2.363282,-4.22265 -0.571839,-0.38733 -1.123539,-0.70636 -1.511718,-1.06836 -0.388179,-0.362 -0.617188,-0.73763 -0.617188,-1.32422 z"
         id="path170877"
         sodipodi:nodetypes="csssscc" />
      <path
         style="color:#000000;fill:#c8dae5;fill-opacity:1;stroke-width:0.7987;stroke-linecap:round;stroke-linejoin:round;-inkscape-stroke:none"
         d="m 62.447266,259.64258 a 0.26460996,0.26460996 0 0 0 -0.345704,0.0234 l -0.792968,0.79492 a 0.26460996,0.26460996 0 0 0 0,0.37304 l 0.792968,0.79493 a 0.26460996,0.26460996 0 0 0 0.345704,0.0234 l 1.058593,-0.79297 a 0.26460996,0.26460996 0 0 0 0,-0.42382 z"
         id="path158474" />
      <path
         style="color:#000000;fill:#a3b9c9;fill-opacity:1;stroke-width:0.7987;stroke-linecap:round;stroke-linejoin:round;-inkscape-stroke:none"
         d="m 67.439453,256.45508 a 0.2645835,0.2645835 0 0 0 -0.08203,0.36523 c 0.423888,0.66611 0.382486,1.13327 0.117187,1.56836 -0.265298,0.43509 -0.810395,0.8243 -1.43164,1.12695 -1.24249,0.60532 -2.740235,0.8711 -2.740235,0.8711 a 0.2645835,0.2645835 0 0 0 -0.216797,0.30664 0.2645835,0.2645835 0 0 0 0.306641,0.21484 c 0,0 1.543665,-0.26456 2.880859,-0.91601 0.668598,-0.32573 1.297526,-0.74623 1.652344,-1.32813 0.354818,-0.5819 0.38106,-1.33785 -0.121094,-2.12695 a 0.2645835,0.2645835 0 0 0 -0.365234,-0.082 z"
         id="path5684" />
      <path
         id="path156698"
         style="color:#000000;fill:#a3b9c9;fill-opacity:1;stroke-width:0.7987;stroke-linecap:round;stroke-linejoin:round;-inkscape-stroke:none"
         d="m 62.290774,259.58936 c -0.155628,2.5e-4 -0.238059,0.13495 -0.340048,0.22773 -0.02582,0.0259 -0.05166,0.0518 -0.0775,0.0777 0.146621,0.0978 0.293743,0.1949 0.432287,0.30407 0.199554,0.14996 0.399105,0.29993 0.598659,0.44989 -0.268906,0.20033 -0.53486,0.40477 -0.805638,0.60249 -0.07407,0.0507 -0.148137,0.10133 -0.222207,0.15199 0.0751,0.0753 0.150206,0.15055 0.225308,0.22583 0.118833,0.12789 0.298577,0.0743 0.411472,-0.026 0.336521,-0.25307 0.674746,-0.50404 1.010198,-0.75842 0.11801,-0.0987 0.115755,-0.30119 -0.0037,-0.39796 -0.356515,-0.2692 -0.715002,-0.53587 -1.072277,-0.80409 l -0.07402,-0.0392 -0.08255,-0.0141 z" />
      <path
         id="path45940"
         style="fill:#8fa1b0;fill-opacity:1;stroke-width:3.01871;stroke-linecap:round;stroke-linejoin:round"
         d="m 256.85156,-87.894531 c -0.49109,0.52163 -0.97352,1.073275 -1.43945,1.652343 0.65174,1.701638 0.38265,3.042373 -0.39063,4.310547 -0.74557,1.22274 -2.07532,2.348621 -3.67382,3.316407 -0.24535,0.830331 -0.44807,1.697899 -0.59766,2.609375 2.42612,-1.212272 4.68304,-2.765342 5.97656,-4.886719 1.1849,-1.943227 1.40005,-4.398951 0.125,-7.001953 z"
         transform="matrix(0.26458334,0,0,0.26458334,0,280.06666)" />
      <path
         style="color:#000000;fill:#e2f0fa;fill-opacity:1;stroke-width:0.7987;stroke-linecap:round;stroke-linejoin:round;-inkscape-stroke:none"
         d="m 71.382812,253.58212 c 0.04374,0.58271 -0.171379,1.00924 -0.560546,1.44531 -0.389168,0.43608 -0.95493,0.85422 -1.542969,1.33985 -1.176079,0.97124 -2.44336,2.26152 -2.44336,4.60351 0,1.15458 0.676956,1.93647 1.671875,2.35938 0.99492,0.42291 2.310854,0.55078 3.751954,0.55078 z"
         id="path170489"
         sodipodi:nodetypes="cscsscc" />
      <path
         id="path26625"
         style="color:#000000;fill:#c8dae5;fill-opacity:1;stroke-width:0.7987;stroke-linecap:round;stroke-linejoin:round;-inkscape-stroke:none"
         d="m 71.628706,253.30085 c -0.143936,0.01 -0.253354,0.13341 -0.245981,0.2775 v 0.004 c 0.04334,0.57742 -0.16786,1.00155 -0.550354,1.4335 -0.0947,0.69917 -0.357929,1.3994 -1.215229,2.34435 -0.857299,0.94494 -1.231187,2.58567 -0.927776,3.97193 0.284448,1.29962 1.224134,2.38969 2.741951,2.53318 0.144518,0.006 0.290878,0.01 0.438735,0.0124 0.201535,-0.008 0.393298,-0.0334 0.575156,-0.0729 0.05448,-0.0539 0.08295,-0.1287 0.07803,-0.20515 l -0.612884,-10.05469 h -0.0021 c -1.19e-4,-0.002 0.0021,-0.002 0.0021,-0.004 -0.01289,-0.14337 -0.138022,-0.25014 -0.281635,-0.2403 z"
         sodipodi:nodetypes="cccccsccccccccc" />
      <path
         style="color:#000000;fill:#e2f0fa;fill-opacity:1;stroke-width:0.7987;stroke-linecap:round;stroke-linejoin:round;-inkscape-stroke:none"
         d="m 71.474609,252.20703 a 0.26460996,0.26460996 0 0 0 -0.146484,0.23828 c 0,0.76469 0.126044,1.54551 0.06055,2.32617 -0.0655,0.78067 -0.306321,1.55881 -1.060547,2.3711 a 0.26460996,0.26460996 0 0 0 -0.0039,0.004 c -1.035398,1.15828 -1.40888,2.79929 -1.105469,4.18555 0.303411,1.38626 1.351801,2.53385 3.052734,2.54883 a 0.26460996,0.26460996 0 0 0 0.0039,0 c 1.700948,-0.015 2.73465,-1.16624 3.021484,-2.55274 0.286834,-1.38649 -0.104209,-3.0244 -1.138672,-4.18164 a 0.26460996,0.26460996 0 0 0 -0.002,-0.004 c -0.991811,-1.06816 -0.9375,-2.16544 -0.9375,-3.63867 a 0.26460996,0.26460996 0 0 0 -0.101563,-0.20899 l -1.363281,-1.05859 a 0.26460996,0.26460996 0 0 0 -0.279297,-0.0293 z"
         id="path170685" />
      <path
         id="path24588"
         style="color:#000000;fill:#c8dae5;fill-opacity:1;stroke-width:0.7987;stroke-linecap:round;stroke-linejoin:round;-inkscape-stroke:none"
         d="m 71.353785,252.33655 1.234035,0.9586 c 0.0643,0.0502 0.101855,0.12721 0.101801,0.20877 0,1.47323 -0.0544,2.57038 0.937411,3.63854 7.11e-4,10e-4 0.0014,0.003 0.0021,0.004 1.034463,1.15724 1.425265,2.79517 1.138433,4.18166 -0.271714,1.31341 -1.214051,2.4151 -2.758487,2.54041 0.08586,0.007 0.173029,0.0116 0.262514,0.0124 0.0012,1e-5 0.0024,1e-5 0.0036,0 1.700948,-0.015 2.734685,-1.16631 3.02152,-2.55281 0.286832,-1.38649 -0.10397,-3.02442 -1.138433,-4.18166 -6.89e-4,-10e-4 -0.0014,-0.003 -0.0021,-0.004 -0.991812,-1.06816 -0.937411,-2.16531 -0.937411,-3.63854 5.4e-5,-0.0816 -0.03751,-0.15859 -0.101801,-0.20877 l -1.363226,-1.05885 c -0.188807,-0.13524 -0.369873,0.002 -0.399956,0.10025 z"
         sodipodi:nodetypes="cccccscscscccccc" />
      <path
         style="color:#000000;fill:#f6fbfe;fill-opacity:1;stroke-width:0.7987;stroke-linecap:round;stroke-linejoin:round;-inkscape-stroke:none"
         d="m 72.798832,258.31836 c 0.540406,0.60454 0.829228,1.26233 0.900391,1.88672 0.01581,0.14583 0.147229,0.25096 0.292968,0.23437 0.14504,-0.0168 0.249056,-0.14791 0.232422,-0.29297 -0.08466,-0.74278 -0.425619,-1.50413 -1.03125,-2.18164 -0.09717,-0.10876 -0.264025,-0.11837 -0.373556,-0.0213 -0.109531,0.0971 -0.119174,0.26549 -0.02097,0.37477 z m 1.162105,2.62109 c -0.141245,-0.0352 -0.284369,0.0504 -0.320312,0.19141 -0.02645,0.10421 -0.05972,0.20589 -0.09961,0.30469 -0.05555,0.13592 0.01019,0.29108 0.146484,0.3457 0.135371,0.0543 0.289119,-0.0113 0.34375,-0.14648 0.04891,-0.12113 0.08884,-0.246 0.121094,-0.37305 0.03641,-0.14189 -0.04939,-0.28635 -0.191406,-0.32227 z"
         id="path5243"
         sodipodi:nodetypes="ccccccccccsccc" />
    </g>
  </g>
</svg>
